<?xml version="1.0" encoding="utf-8"?>
<svg xmlns="http://www.w3.org/2000/svg" xmlns:xlink="http://www.w3.org/1999/xlink">
  <symbol viewBox="0 0 338.05 105.87" id="logo-white">
    <g>
      <path fill="#231f20" d="M55.64,51.86V15.75h24.25v4.76h-18.84v10.56h18.46v4.76h-18.46v11.26h18.84v4.76h-24.25Z"/>
      <path fill="#231f20" d="M103.29,51.86l-7.31-10.18-7.36,10.18h-5.52l9.8-13.43-9.2-12.72h5.52l6.77,9.42,6.71-9.42h5.52l-9.26,12.72,9.85,13.43h-5.52Z"/>
      <path fill="#231f20" d="M118.02,61.82h-4.87V25.71h4.87v3.74c1.89-2.6,5.04-4.39,8.55-4.39,6.82,0,11.64,5.14,11.64,13.7s-4.82,13.75-11.64,13.75c-3.41,0-6.44-1.57-8.55-4.44v13.75ZM125.27,29.39c-2.98,0-5.96,1.73-7.25,3.84v11.1c1.3,2.06,4.28,3.84,7.25,3.84,4.87,0,7.85-3.95,7.85-9.42s-2.98-9.37-7.85-9.37Z"/>
      <path fill="#231f20" d="M142.76,38.76c0-7.53,5.09-13.7,13.21-13.7s13.21,6.17,13.21,13.7-5.04,13.75-13.21,13.75-13.21-6.17-13.21-13.75ZM164.09,38.76c0-4.93-2.87-9.37-8.12-9.37s-8.12,4.44-8.12,9.37,2.92,9.42,8.12,9.42,8.12-4.44,8.12-9.42Z"/>
      <path fill="#231f20" d="M193,51.86v-16.73c0-4.33-2.22-5.74-5.58-5.74-3.03,0-5.79,1.84-7.2,3.79v18.68h-4.87v-26.15h4.87v3.68c1.73-2.11,5.2-4.33,9.26-4.33,5.52,0,8.39,2.92,8.39,8.45v18.35h-4.87Z"/>
      <path fill="#231f20" d="M217.1,25.06c7.85,0,12.72,6.12,12.72,14.13v1.19h-20.68c.38,4.44,3.63,8.12,8.88,8.12,2.76,0,5.79-1.08,7.74-3.09l2.27,3.19c-2.6,2.54-6.28,3.9-10.5,3.9-7.8,0-13.54-5.52-13.54-13.75,0-7.58,5.47-13.7,13.1-13.7ZM209.08,36.86h15.97c-.11-3.46-2.44-7.8-7.96-7.8s-7.74,4.22-8.01,7.8Z"/>
      <path fill="#231f20" d="M253.59,51.86v-16.73c0-4.33-2.22-5.74-5.58-5.74-3.03,0-5.79,1.84-7.2,3.79v18.68h-4.87v-26.15h4.87v3.68c1.73-2.11,5.2-4.33,9.26-4.33,5.52,0,8.39,2.92,8.39,8.45v18.35h-4.87Z"/>
      <path fill="#231f20" d="M267.18,46.07v-16.08h-4.33v-4.28h4.33v-7.15h4.87v7.15h5.31v4.28h-5.31v15c0,1.84.87,3.19,2.54,3.19,1.14,0,2.17-.49,2.65-1.03l1.25,3.68c-1.03.97-2.54,1.68-5.09,1.68-4.12,0-6.23-2.33-6.23-6.44Z"/>
      <path fill="#231f20" d="M282.01,18.24c0-1.73,1.46-3.14,3.14-3.14s3.14,1.41,3.14,3.14-1.41,3.09-3.14,3.09-3.14-1.35-3.14-3.09ZM282.77,51.86v-26.15h4.87v26.15h-4.87Z"/>
      <path fill="#231f20" d="M311.52,51.86v-2.87c-2.06,2.27-5.04,3.52-8.55,3.52-4.33,0-9.1-2.92-9.1-8.66s4.71-8.55,9.1-8.55c3.52,0,6.55,1.14,8.55,3.46v-4.33c0-3.25-2.65-5.2-6.39-5.2-2.98,0-5.52,1.14-7.85,3.46l-2.11-3.36c2.92-2.87,6.5-4.28,10.72-4.28,5.68,0,10.5,2.49,10.5,9.15v17.65h-4.87ZM311.52,41.68c-1.46-1.95-4.01-2.98-6.71-2.98-3.52,0-6.01,2.11-6.01,5.2s2.49,5.2,6.01,5.2c2.71,0,5.25-1.03,6.71-2.98v-4.44Z"/>
      <path fill="#231f20" d="M324.19,51.86V15.75h4.87v36.11h-4.87Z"/>
    </g>
    <g>
      <path fill="#ffffff" d="M190.18,92.92v-25.92h10.92c5.32,0,8.28,3.65,8.28,7.97s-2.99,7.97-8.28,7.97h-7.03v9.99h-3.89ZM200.59,70.42h-6.53v9.09h6.53c2.8,0,4.78-1.83,4.78-4.55s-1.98-4.55-4.78-4.55Z"/>
      <path fill="#ffffff" d="M213.3,92.92v-25.92h3.5v25.92h-3.5Z"/>
      <path fill="#ffffff" d="M233.93,92.92v-2.06c-1.48,1.63-3.61,2.53-6.14,2.53-3.11,0-6.53-2.1-6.53-6.22s3.38-6.14,6.53-6.14c2.53,0,4.7.82,6.14,2.49v-3.11c0-2.33-1.9-3.73-4.59-3.73-2.14,0-3.96.82-5.64,2.49l-1.52-2.41c2.1-2.06,4.66-3.07,7.7-3.07,4.08,0,7.54,1.79,7.54,6.57v12.67h-3.5ZM233.93,85.62c-1.05-1.4-2.88-2.14-4.82-2.14-2.53,0-4.31,1.52-4.31,3.73s1.79,3.73,4.31,3.73c1.94,0,3.77-.74,4.82-2.14v-3.19Z"/>
      <path fill="#ffffff" d="M243.73,88.76v-11.54h-3.11v-3.07h3.11v-5.13h3.5v5.13h3.81v3.07h-3.81v10.77c0,1.32.62,2.29,1.83,2.29.82,0,1.55-.35,1.9-.74l.89,2.64c-.74.7-1.83,1.2-3.65,1.2-2.95,0-4.47-1.67-4.47-4.62Z"/>
      <path fill="#ffffff" d="M259.27,77.22v15.7h-3.5v-15.7h-3.11v-3.07h3.11v-1.24c0-4.04,2.37-6.3,5.71-6.3,1.21,0,2.25.23,3.07.7l-.82,2.6c-.47-.27-1.05-.43-1.67-.43-1.75,0-2.8,1.17-2.8,3.42v1.24h3.81v3.07h-3.81Z"/>
      <path fill="#ffffff" d="M265.25,83.52c0-5.4,3.65-9.83,9.48-9.83s9.48,4.43,9.48,9.83-3.61,9.87-9.48,9.87-9.48-4.43-9.48-9.87ZM280.56,83.52c0-3.54-2.06-6.72-5.83-6.72s-5.83,3.19-5.83,6.72,2.1,6.76,5.83,6.76,5.83-3.19,5.83-6.76Z"/>
      <path fill="#ffffff" d="M288.65,92.92v-18.77h3.5v2.88c1.44-1.87,3.65-3.3,6.14-3.3v3.54c-.35-.08-.74-.12-1.21-.12-1.75,0-4.12,1.32-4.94,2.72v13.06h-3.5Z"/>
      <path fill="#ffffff" d="M324.6,92.92v-12.51c0-2.18-.97-3.61-3.26-3.61-1.9,0-3.77,1.32-4.66,2.68v13.45h-3.5v-12.51c0-2.18-.93-3.61-3.3-3.61-1.83,0-3.65,1.36-4.59,2.72v13.41h-3.5v-18.77h3.5v2.64c.78-1.17,3.26-3.11,6.06-3.11s4.51,1.48,5.09,3.5c1.09-1.75,3.58-3.5,6.33-3.5,3.46,0,5.32,1.9,5.32,5.67v13.56h-3.5Z"/>
    </g>
    <g transform="translate(-10 0)">
      <g>
        <rect fill="#ffffff" x="10.73" y="14.23" width="27.81" height="28.72"/>
        <path fill="#231f20" d="M36.8,15.97v25.23H12.48V15.97h24.32M40.29,12.48H8.98v32.21h31.31V12.48h0Z"/>
      </g>
      <g>
        <rect fill="#f15a28" x="22.66" y="25.69" width="24.93" height="24.93"/>
        <path fill="#231f20" d="M45.83,27.43v21.43h-21.43v-21.43h21.43M49.33,23.94h-28.42v28.42h28.42v-28.42h0Z"/>
      </g>
    </g>
  </symbol>
  <symbol viewBox="0 0 338.05 105.87" id="logo">
    <g>
      <path fill="#231f20" d="M55.64,51.86V15.75h24.25v4.76h-18.84v10.56h18.46v4.76h-18.46v11.26h18.84v4.76h-24.25Z"/>
      <path fill="#231f20" d="M103.29,51.86l-7.31-10.18-7.36,10.18h-5.52l9.8-13.43-9.2-12.72h5.52l6.77,9.42,6.71-9.42h5.52l-9.26,12.72,9.85,13.43h-5.52Z"/>
      <path fill="#231f20" d="M118.02,61.82h-4.87V25.71h4.87v3.74c1.89-2.6,5.04-4.39,8.55-4.39,6.82,0,11.64,5.14,11.64,13.7s-4.82,13.75-11.64,13.75c-3.41,0-6.44-1.57-8.55-4.44v13.75ZM125.27,29.39c-2.98,0-5.96,1.73-7.25,3.84v11.1c1.3,2.06,4.28,3.84,7.25,3.84,4.87,0,7.85-3.95,7.85-9.42s-2.98-9.37-7.85-9.37Z"/>
      <path fill="#231f20" d="M142.76,38.76c0-7.53,5.09-13.7,13.21-13.7s13.21,6.17,13.21,13.7-5.04,13.75-13.21,13.75-13.21-6.17-13.21-13.75ZM164.09,38.76c0-4.93-2.87-9.37-8.12-9.37s-8.12,4.44-8.12,9.37,2.92,9.42,8.12,9.42,8.12-4.44,8.12-9.42Z"/>
      <path fill="#231f20" d="M193,51.86v-16.73c0-4.33-2.22-5.74-5.58-5.74-3.03,0-5.79,1.84-7.2,3.79v18.68h-4.87v-26.15h4.87v3.68c1.73-2.11,5.2-4.33,9.26-4.33,5.52,0,8.39,2.92,8.39,8.45v18.35h-4.87Z"/>
      <path fill="#231f20" d="M217.1,25.06c7.85,0,12.72,6.12,12.72,14.13v1.19h-20.68c.38,4.44,3.63,8.12,8.88,8.12,2.76,0,5.79-1.08,7.74-3.09l2.27,3.19c-2.6,2.54-6.28,3.9-10.5,3.9-7.8,0-13.54-5.52-13.54-13.75,0-7.58,5.47-13.7,13.1-13.7ZM209.08,36.86h15.97c-.11-3.46-2.44-7.8-7.96-7.8s-7.74,4.22-8.01,7.8Z"/>
      <path fill="#231f20" d="M253.59,51.86v-16.73c0-4.33-2.22-5.74-5.58-5.74-3.03,0-5.79,1.84-7.2,3.79v18.68h-4.87v-26.15h4.87v3.68c1.73-2.11,5.2-4.33,9.26-4.33,5.52,0,8.39,2.92,8.39,8.45v18.35h-4.87Z"/>
      <path fill="#231f20" d="M267.18,46.07v-16.08h-4.33v-4.28h4.33v-7.15h4.87v7.15h5.31v4.28h-5.31v15c0,1.84.87,3.19,2.54,3.19,1.14,0,2.17-.49,2.65-1.03l1.25,3.68c-1.03.97-2.54,1.68-5.09,1.68-4.12,0-6.23-2.33-6.23-6.44Z"/>
      <path fill="#231f20" d="M282.01,18.24c0-1.73,1.46-3.14,3.14-3.14s3.14,1.41,3.14,3.14-1.41,3.09-3.14,3.09-3.14-1.35-3.14-3.09ZM282.77,51.86v-26.15h4.87v26.15h-4.87Z"/>
      <path fill="#231f20" d="M311.52,51.86v-2.87c-2.06,2.27-5.04,3.52-8.55,3.52-4.33,0-9.1-2.92-9.1-8.66s4.71-8.55,9.1-8.55c3.52,0,6.55,1.14,8.55,3.46v-4.33c0-3.25-2.65-5.2-6.39-5.2-2.98,0-5.52,1.14-7.85,3.46l-2.11-3.36c2.92-2.87,6.5-4.28,10.72-4.28,5.68,0,10.5,2.49,10.5,9.15v17.65h-4.87ZM311.52,41.68c-1.46-1.95-4.01-2.98-6.71-2.98-3.52,0-6.01,2.11-6.01,5.2s2.49,5.2,6.01,5.2c2.71,0,5.25-1.03,6.71-2.98v-4.44Z"/>
      <path fill="#231f20" d="M324.19,51.86V15.75h4.87v36.11h-4.87Z"/>
    </g>
    <g>
      <path fill="#f15a28" d="M190.18,92.92v-25.92h10.92c5.32,0,8.28,3.65,8.28,7.97s-2.99,7.97-8.28,7.97h-7.03v9.99h-3.89ZM200.59,70.42h-6.53v9.09h6.53c2.8,0,4.78-1.83,4.78-4.55s-1.98-4.55-4.78-4.55Z"/>
      <path fill="#f15a28" d="M213.3,92.92v-25.92h3.5v25.92h-3.5Z"/>
      <path fill="#f15a28" d="M233.93,92.92v-2.06c-1.48,1.63-3.61,2.53-6.14,2.53-3.11,0-6.53-2.1-6.53-6.22s3.38-6.14,6.53-6.14c2.53,0,4.7.82,6.14,2.49v-3.11c0-2.33-1.9-3.73-4.59-3.73-2.14,0-3.96.82-5.64,2.49l-1.52-2.41c2.1-2.06,4.66-3.07,7.7-3.07,4.08,0,7.54,1.79,7.54,6.57v12.67h-3.5ZM233.93,85.62c-1.05-1.4-2.88-2.14-4.82-2.14-2.53,0-4.31,1.52-4.31,3.73s1.79,3.73,4.31,3.73c1.94,0,3.77-.74,4.82-2.14v-3.19Z"/>
      <path fill="#f15a28" d="M243.73,88.76v-11.54h-3.11v-3.07h3.11v-5.13h3.5v5.13h3.81v3.07h-3.81v10.77c0,1.32.62,2.29,1.83,2.29.82,0,1.55-.35,1.9-.74l.89,2.64c-.74.7-1.83,1.2-3.65,1.2-2.95,0-4.47-1.67-4.47-4.62Z"/>
      <path fill="#f15a28" d="M259.27,77.22v15.7h-3.5v-15.7h-3.11v-3.07h3.11v-1.24c0-4.04,2.37-6.3,5.71-6.3,1.21,0,2.25.23,3.07.7l-.82,2.6c-.47-.27-1.05-.43-1.67-.43-1.75,0-2.8,1.17-2.8,3.42v1.24h3.81v3.07h-3.81Z"/>
      <path fill="#f15a28" d="M265.25,83.52c0-5.4,3.65-9.83,9.48-9.83s9.48,4.43,9.48,9.83-3.61,9.87-9.48,9.87-9.48-4.43-9.48-9.87ZM280.56,83.52c0-3.54-2.06-6.72-5.83-6.72s-5.83,3.19-5.83,6.72,2.1,6.76,5.83,6.76,5.83-3.19,5.83-6.76Z"/>
      <path fill="#f15a28" d="M288.65,92.92v-18.77h3.5v2.88c1.44-1.87,3.65-3.3,6.14-3.3v3.54c-.35-.08-.74-.12-1.21-.12-1.75,0-4.12,1.32-4.94,2.72v13.06h-3.5Z"/>
      <path fill="#f15a28" d="M324.6,92.92v-12.51c0-2.18-.97-3.61-3.26-3.61-1.9,0-3.77,1.32-4.66,2.68v13.45h-3.5v-12.51c0-2.18-.93-3.61-3.3-3.61-1.83,0-3.65,1.36-4.59,2.72v13.41h-3.5v-18.77h3.5v2.64c.78-1.17,3.26-3.11,6.06-3.11s4.51,1.48,5.09,3.5c1.09-1.75,3.58-3.5,6.33-3.5,3.46,0,5.32,1.9,5.32,5.67v13.56h-3.5Z"/>
    </g>
    <g transform="translate(-10 0)">
      <g>
        <rect fill="#ffffff" x="10.73" y="14.23" width="27.81" height="28.72"/>
        <path fill="#231f20" d="M36.8,15.97v25.23H12.48V15.97h24.32M40.29,12.48H8.98v32.21h31.31V12.48h0Z"/>
      </g>
      <g>
        <rect fill="#f15a28" x="22.66" y="25.69" width="24.93" height="24.93"/>
        <path fill="#231f20" d="M45.83,27.43v21.43h-21.43v-21.43h21.43M49.33,23.94h-28.42v28.42h28.42v-28.42h0Z"/>
      </g>
    </g>
  </symbol>
</svg>